HIERARCHY
ROOT hip
{
  OFFSET 0 0 0
  CHANNELS 6 Xposition Yposition Zposition Zrotation Yrotation Xrotation
  JOINT abdomen
  {
    OFFSET 0 20.6881 -0.73152
    CHANNELS 3 Zrotation Xrotation Yrotation
    JOINT chest
    {
      OFFSET 0 11.7043 -0.48768
      CHANNELS 3 Zrotation Xrotation Yrotation
      JOINT neck
      {
        OFFSET 0 22.1894 -2.19456
        CHANNELS 3 Zrotation Xrotation Yrotation
        JOINT head
        {
          OFFSET -0.24384 7.07133 1.2192
          CHANNELS 3 Zrotation Xrotation Yrotation
          JOINT leftEye
          {
            OFFSET 4.14528 8.04674 8.04672
            CHANNELS 3 Zrotation Xrotation Yrotation
            End Site
            {
              OFFSET 1 0 0
            }
          }
          JOINT rightEye
          {
            OFFSET -3.6576 8.04674 8.04672
            CHANNELS 3 Zrotation Xrotation Yrotation
            End Site
            {
              OFFSET 1 0 0
            }
          }
        }
      }
      JOINT rCollar
      {
        OFFSET -2.68224 19.2634 -4.8768
        CHANNELS 3 Zrotation Xrotation Yrotation
        JOINT rShldr
        {
          OFFSET -8.77824 -1.95073 1.46304
          CHANNELS 3 Zrotation Xrotation Yrotation
          JOINT rForeArm
          {
            OFFSET -28.1742 -1.7115 0.48768
            CHANNELS 3 Zrotation Xrotation Yrotation
            JOINT rHand
            {
              OFFSET -22.5879 0.773209 7.07136
              CHANNELS 3 Zrotation Xrotation Yrotation
              JOINT rThumb1
              {
                OFFSET -1.2192 -0.487915 3.41376
                CHANNELS 3 Zrotation Xrotation Yrotation
                JOINT rThumb2
                {
                  OFFSET -3.37035 -0.52449 3.41376
                  CHANNELS 3 Zrotation Xrotation Yrotation
                  End Site
                  {
                    OFFSET -1.78271 -1.18214 1.43049
                  }
                }
              }
              JOINT rIndex1
              {
                OFFSET -7.75947 0.938293 5.60832
                CHANNELS 3 Zrotation Xrotation Yrotation
                JOINT rIndex2
                {
                  OFFSET -2.54057 -0.884171 1.56538
                  CHANNELS 3 Zrotation Xrotation Yrotation
                  End Site
                  {
                    OFFSET -1.62519 -0.234802 1.16502
                  }
                }
              }
              JOINT rMid1
              {
                OFFSET -8.24714 1.18213 3.41376
                CHANNELS 3 Zrotation Xrotation Yrotation
                JOINT rMid2
                {
                  OFFSET -3.10165 -0.590103 1.0647
                  CHANNELS 3 Zrotation Xrotation Yrotation
                  End Site
                  {
                    OFFSET -2.48547 -0.328903 0.83742
                  }
                }
              }
              JOINT rRing1
              {
                OFFSET -8.82822 0.546677 1.51678
                CHANNELS 3 Zrotation Xrotation Yrotation
                JOINT rRing2
                {
                  OFFSET -2.60934 -0.819778 -0.0198488
                  CHANNELS 3 Zrotation Xrotation Yrotation
                  End Site
                  {
                    OFFSET -2.33842 -0.294052 0.168128
                  }
                }
              }
              JOINT rPinky1
              {
                OFFSET -8.27202 -0.0477905 -0.4584
                CHANNELS 3 Zrotation Xrotation Yrotation
                JOINT rPinky2
                {
                  OFFSET -1.82734 -0.647385 -0.700984
                  CHANNELS 3 Zrotation Xrotation Yrotation
                  End Site
                  {
                    OFFSET -1.69225 -0.51767 -0.607171
                  }
                }
              }
            }
          }
        }
      }
      JOINT lCollar
      {
        OFFSET 2.68224 19.2634 -4.8768
        CHANNELS 3 Zrotation Xrotation Yrotation
        JOINT lShldr
        {
          OFFSET 8.77824 -1.95073 1.46304
          CHANNELS 3 Zrotation Xrotation Yrotation
          JOINT lForeArm
          {
            OFFSET 28.1742 -1.7115 0.48768
            CHANNELS 3 Zrotation Xrotation Yrotation
            JOINT lHand
            {
              OFFSET 22.5879 0.773209 7.07136
              CHANNELS 3 Zrotation Xrotation Yrotation
              JOINT lThumb1
              {
                OFFSET 1.2192 -0.487915 3.41376
                CHANNELS 3 Zrotation Xrotation Yrotation
                JOINT lThumb2
                {
                  OFFSET 3.37035 -0.52449 3.41376
                  CHANNELS 3 Zrotation Xrotation Yrotation
                  End Site
                  {
                    OFFSET 1.78271 -1.18214 1.43049
                  }
                }
              }
              JOINT lIndex1
              {
                OFFSET 7.75947 0.938293 5.60832
                CHANNELS 3 Zrotation Xrotation Yrotation
                JOINT lIndex2
                {
                  OFFSET 2.54057 -0.884171 1.56538
                  CHANNELS 3 Zrotation Xrotation Yrotation
                  End Site
                  {
                    OFFSET 1.62519 -0.234802 1.16502
                  }
                }
              }
              JOINT lMid1
              {
                OFFSET 8.24714 1.18213 3.41376
                CHANNELS 3 Zrotation Xrotation Yrotation
                JOINT lMid2
                {
                  OFFSET 3.10165 -0.590103 1.0647
                  CHANNELS 3 Zrotation Xrotation Yrotation
                  End Site
                  {
                    OFFSET 2.48547 -0.328903 0.83742
                  }
                }
              }
              JOINT lRing1
              {
                OFFSET 8.82822 0.546677 1.51678
                CHANNELS 3 Zrotation Xrotation Yrotation
                JOINT lRing2
                {
                  OFFSET 2.60934 -0.819778 -0.0198488
                  CHANNELS 3 Zrotation Xrotation Yrotation
                  End Site
                  {
                    OFFSET 2.33842 -0.294052 0.168128
                  }
                }
              }
              JOINT lPinky1
              {
                OFFSET 8.27202 -0.0477905 -0.4584
                CHANNELS 3 Zrotation Xrotation Yrotation
                JOINT lPinky2
                {
                  OFFSET 1.82734 -0.647385 -0.700984
                  CHANNELS 3 Zrotation Xrotation Yrotation
                  End Site
                  {
                    OFFSET 1.69225 -0.51767 -0.607171
                  }
                }
              }
            }
          }
        }
      }
    }
  }
  JOINT rButtock
  {
    OFFSET -8.77824 4.35084 1.2192
    CHANNELS 3 Zrotation Xrotation Yrotation
    JOINT rThigh
    {
      OFFSET 0 -1.70687 -2.19456
      CHANNELS 3 Zrotation Xrotation Yrotation
      JOINT rShin
      {
        OFFSET 0 -36.8199 0.73152
        CHANNELS 3 Zrotation Xrotation Yrotation
        JOINT rFoot
        {
          OFFSET 0.73152 -45.1104 -5.12064
          CHANNELS 3 Zrotation Xrotation Yrotation
          End Site
          {
            OFFSET -1.1221 -3.69964 12.103
          }
        }
      }
    }
  }
  JOINT lButtock
  {
    OFFSET 8.77824 4.35084 1.2192
    CHANNELS 3 Zrotation Xrotation Yrotation
    JOINT lThigh
    {
      OFFSET 0 -1.70687 -2.19456
      CHANNELS 3 Zrotation Xrotation Yrotation
      JOINT lShin
      {
        OFFSET 0 -36.8199 0.73152
        CHANNELS 3 Zrotation Xrotation Yrotation
        JOINT lFoot
        {
          OFFSET -0.73152 -45.1104 -5.12064
          CHANNELS 3 Zrotation Xrotation Yrotation
          End Site
          {
            OFFSET 1.1221 -3.69964 12.103
          }
        }
      }
    }
  }
}
MOTION
Frames:	7
Frame Time:	0.00833333
57.157 84.8839 -53.0626 0.0 0.0 0.0 -0.194077 -0.000752048 -0.00553943 -0.0535364 -0.00112971 -0.00927448 2.4333e-15 -1.59028e-15 9.31803e-18 7.30534e-15 3.18055e-15 3.57191e-17 -0.0 0.0 0.0 -0.0 0.0 0.0 1.24112e-15 -5.82377e-19 1.49089e-16 2.82034e-14 2.11209e-16 9.93923e-16 4.40755e-13 -1.30999e-13 -9.54166e-15 5.02507e-12 1.3408e-13 1.90833e-14 1.18525e-11 5.53577e-15 5.08889e-14 2.04537e-11 1.27222e-14 7.55382e-14 1.18571e-11 8.34896e-15 4.13472e-14 7.73091 5.47488 0.417314 1.18527e-11 5.56597e-15 5.40694e-14 2.90554 0.965183 0.102902 1.18594e-11 6.06293e-15 4.37326e-14 10.2786 0.731801 0.0259123 1.18511e-11 5.96354e-15 4.77083e-14 2.22167 -0.733487 -0.20892 1.24377e-15 -3.88251e-19 -1.49089e-16 2.26974e-14 1.86361e-17 -5.96354e-16 4.37972e-13 1.30999e-13 -9.54166e-15 5.02438e-12 -1.33509e-13 3.81667e-14 1.18517e-11 -3.42456e-15 4.13472e-14 2.0474e-11 -6.36111e-15 8.50798e-14 1.1846e-11 -1.59028e-15 5.725e-14 -7.73091 5.47488 -0.417314 1.18519e-11 -3.37934e-15 4.13472e-14 -2.90554 0.965183 -0.102902 1.18385e-11 -2.98177e-15 4.53229e-14 -10.2786 0.731801 -0.0259123 1.18555e-11 -3.18055e-15 3.81667e-14 -2.22167 -0.733487 0.20892 -2.03217e-16 0.0 -3.88251e-19 0.355854 -2.82714 -0.0340695 -0.00665507 -0.431854 -0.0584473 -0.502545 3.25829 0.1238 2.03217e-16 0.0 3.88251e-19 -0.651361 -3.58303 0.0525571 0.00446001 0.937454 0.0381204 0.504969 2.64491 -0.111592
53.9401 83.6369 -54.7721 -1.2754 -42.1611 2.4427 -0.448028 1.06341 0.311614 0.140239 -1.23905 0.0787024 -3.60523 -1.49693 -1.77402 4.62738 1.82711 -2.48916 -0.0 0.0 0.0 -0.0 0.0 0.0 3.17196e-17 -2.36869e-14 -9.09306e-13 22.454 3.56985 -1.84739 -4.55224 -2.13912 7.03182 0.00600609 1.71923 0.241229 3.56777e-09 -5.71702e-09 -2.33574e-09 6.15577e-09 -9.89953e-09 -4.06844e-09 3.56777e-09 -5.71701e-09 -2.33575e-09 7.73091 5.47488 0.417314 3.56777e-09 -5.71702e-09 -2.33574e-09 2.90554 0.965183 0.102902 3.56777e-09 -5.71702e-09 -2.33575e-09 10.2786 0.731801 0.0259123 3.56776e-09 -5.71702e-09 -2.33574e-09 2.22167 -0.733487 -0.20892 -2.35658e-17 -2.3687e-14 -9.09591e-13 -21.9735 4.79999 0.851539 4.207 -1.90898 -6.57373 -0.0140126 2.62648 -0.367728 3.90823e-09 -4.24375e-09 -1.36487e-09 6.74281e-09 -7.3964e-09 -2.39823e-09 3.90822e-09 -4.24375e-09 -1.36486e-09 -7.73091 5.47488 -0.417314 3.90823e-09 -4.24375e-09 -1.36487e-09 -2.90554 0.965183 -0.102902 3.90822e-09 -4.24376e-09 -1.36487e-09 -10.2786 0.731801 -0.0259123 3.90823e-09 -4.24375e-09 -1.36488e-09 -2.22167 -0.733487 0.20892 -2.03217e-16 0.0 -3.88251e-19 1.07746 -4.98624 -0.0870491 0.00727136 7.27422 0.0764998 -0.703873 -1.1939 -1.97916 2.03217e-16 0.0 3.88251e-19 -0.136591 -5.33556 0.324391 -0.00137878 7.38714 -0.0626849 0.534824 -1.07304 0.286474
53.9215 83.6301 -54.7728 -1.1708 -42.1782 2.4431 -0.7333 2.18561 0.644554 0.350104 -2.54936 0.171077 -7.51675 -3.0728 -3.65269 9.693 3.74629 -5.12834 -0.0 0.0 0.0 -0.0 0.0 0.0 -1.5808e-15 -5.06408e-14 -1.92571e-12 46.4424 7.33065 -3.82538 -8.79713 -4.29221 14.4949 -0.0034111 3.53555 0.496819 7.56072e-09 -1.21233e-08 -4.9509e-09 1.30452e-08 -2.09925e-08 -8.62366e-09 7.56072e-09 -1.21233e-08 -4.95091e-09 7.73091 5.47488 0.417314 7.56072e-09 -1.21233e-08 -4.9509e-09 2.90554 0.965183 0.102902 7.56073e-09 -1.21233e-08 -4.95091e-09 10.2786 0.731801 0.0259123 7.56071e-09 -1.21233e-08 -4.9509e-09 2.22167 -0.733487 -0.20892 -1.70236e-15 -5.06411e-14 -1.92598e-12 -45.3585 9.86625 1.77438 8.18279 -3.8442 -13.5484 0.00799343 5.40646 -0.759577 8.28548e-09 -9.00334e-09 -2.89495e-09 1.42948e-08 -1.5692e-08 -5.08685e-09 8.28547e-09 -9.00334e-09 -2.89493e-09 -7.73091 5.47488 -0.417314 8.28548e-09 -9.00334e-09 -2.89495e-09 -2.90554 0.965183 -0.102902 8.28547e-09 -9.00335e-09 -2.89495e-09 -10.2786 0.731801 -0.0259123 8.28548e-09 -9.00334e-09 -2.89496e-09 -2.22167 -0.733487 0.20892 -2.03217e-16 0.0 -3.88251e-19 1.8316 -7.27161 -0.143327 -0.0186087 15.4215 0.226032 -1.27345 -5.88295 -4.22647 2.03217e-16 0.0 3.88251e-19 0.420897 -7.18991 0.613406 0.0178828 14.204 -0.173439 0.622531 -4.99925 0.708888
53.9115 83.6224 -54.7739 -1.0339 -42.2152 2.4407 -0.991318 3.19134 0.947229 0.539216 -3.71486 0.255137 -11.0941 -4.47355 -5.33655 14.3587 5.43988 -7.49763 -0.0 0.0 0.0 -0.0 0.0 0.0 -2.38707e-15 -7.10595e-14 -2.72821e-12 68.0619 10.6646 -5.62896 -12.1138 -6.03156 21.2037 -0.0255609 5.15731 0.7263 1.06796e-08 -1.71511e-08 -7.00733e-09 1.84264e-08 -2.96986e-08 -1.22055e-08 1.06796e-08 -1.71511e-08 -7.00734e-09 7.73091 5.47488 0.417314 1.06796e-08 -1.71511e-08 -7.00733e-09 2.90554 0.965183 0.102902 1.06796e-08 -1.71511e-08 -7.00733e-09 10.2786 0.731801 0.0259123 1.06796e-08 -1.71511e-08 -7.00732e-09 2.22167 -0.733487 -0.20892 -2.55824e-15 -7.10602e-14 -2.72848e-12 -66.3602 14.387 2.62813 11.3307 -5.426 -19.8026 0.0599175 7.87814 -1.11253 1.1701e-08 -1.27312e-08 -4.0947e-09 2.01875e-08 -2.21892e-08 -7.19485e-09 1.1701e-08 -1.27313e-08 -4.09469e-09 -7.73091 5.47488 -0.417314 1.1701e-08 -1.27312e-08 -4.0947e-09 -2.90554 0.965183 -0.102902 1.1701e-08 -1.27313e-08 -4.0947e-09 -10.2786 0.731801 -0.0259123 1.1701e-08 -1.27312e-08 -4.09471e-09 -2.22167 -0.733487 0.20892 -2.03217e-16 0.0 -3.88251e-19 2.50853 -9.30443 -0.194664 -0.0807263 22.6859 0.373436 -2.09604 -10.041 -6.27995 2.03217e-16 0.0 3.88251e-19 0.943409 -8.83985 0.874434 0.0586316 20.2863 -0.280099 0.75064 -8.50747 1.09426
53.9109 83.6202 -54.7887 -0.9641 -42.1587 2.4155 -1.15684 3.90626 1.17304 0.668505 -4.51834 0.317954 -13.64 -5.45282 -6.51973 17.6889 6.60884 -9.16353 -0.0 0.0 0.0 -0.0 0.0 0.0 -1.17774e-15 -7.51406e-14 -2.99598e-12 83.2616 12.9745 -6.91386 -14.1832 -7.10326 25.9234 -0.0488179 6.293 0.888033 1.16133e-08 -1.87328e-08 -7.66689e-09 2.0037e-08 -3.24373e-08 -1.33538e-08 1.16133e-08 -1.87328e-08 -7.6669e-09 7.73091 5.47488 0.417314 1.16133e-08 -1.87328e-08 -7.6669e-09 2.90554 0.965183 0.102902 1.16133e-08 -1.87328e-08 -7.66689e-09 10.2786 0.731801 0.0259123 1.16133e-08 -1.87328e-08 -7.66689e-09 2.22167 -0.733487 -0.20892 -1.35684e-15 -7.51416e-14 -2.99623e-12 -81.0879 17.5566 3.23911 13.3109 -6.41163 -24.1776 0.11391 9.58035 -1.35925 1.27121e-08 -1.388e-08 -4.46864e-09 2.19316e-08 -2.41904e-08 -7.85125e-09 1.27121e-08 -1.388e-08 -4.46863e-09 -7.73091 5.47488 -0.417314 1.27121e-08 -1.388e-08 -4.46864e-09 -2.90554 0.965183 -0.102902 1.27121e-08 -1.388e-08 -4.46865e-09 -10.2786 0.731801 -0.0259123 1.27121e-08 -1.388e-08 -4.46866e-09 -2.22167 -0.733487 0.20892 -2.03217e-16 0.0 -3.88251e-19 3.001 -10.7059 -0.232258 -0.149382 27.744 0.489013 -2.84853 -12.9302 -7.74451 2.03217e-16 0.0 3.88251e-19 1.34273 -9.97943 1.06022 0.101375 24.5324 -0.361484 0.870017 -10.9723 1.37401
53.8765 83.6186 -54.8144 -1.1073 -42.1112 2.5198 -1.16907 4.21826 1.29759 0.708913 -4.80965 0.352784 -14.6598 -5.85853 -6.99454 19.0027 7.07057 -9.82541 -0.0 0.0 0.0 -0.0 0.0 0.0 3.33701e-15 -5.40844e-14 -2.41836e-12 89.2404 13.8858 -7.41358 -14.9507 -7.49188 27.7994 -0.0598037 6.74437 0.952597 9.04747e-09 -1.48148e-08 -6.0933e-09 1.56092e-08 -2.56524e-08 -1.06116e-08 9.04747e-09 -1.48148e-08 -6.0933e-09 7.73091 5.47488 0.417314 9.04747e-09 -1.48148e-08 -6.0933e-09 2.90554 0.965183 0.102902 9.04748e-09 -1.48148e-08 -6.0933e-09 10.2786 0.731801 0.0259123 9.04746e-09 -1.48149e-08 -6.09329e-09 2.22167 -0.733487 -0.20892 3.22428e-15 -5.40859e-14 -2.41859e-12 -86.8866 18.8391 3.45649 14.0309 -6.75884 -25.8733 0.138177 10.2127 -1.45187 9.86607e-09 -1.09079e-08 -3.52819e-09 1.70201e-08 -1.90083e-08 -6.19686e-09 9.86606e-09 -1.09079e-08 -3.52818e-09 -7.73091 5.47488 -0.417314 9.86607e-09 -1.09079e-08 -3.52819e-09 -2.90554 0.965183 -0.102902 9.86607e-09 -1.0908e-08 -3.5282e-09 -10.2786 0.731801 -0.0259123 9.86608e-09 -1.09079e-08 -3.5282e-09 -2.22167 -0.733487 0.20892 -2.03217e-16 0.0 -3.88251e-19 3.24863 -11.2144 -0.244613 -0.183132 29.7108 0.537986 -3.17854 -14.0918 -8.29413 2.03217e-16 0.0 3.88251e-19 1.56191 -10.3962 1.13678 0.120568 26.211 -0.395971 0.929719 -11.9852 1.5046
53.838 83.6228 -54.8137 -1.0821 -42.1619 2.4569 -1.06958 4.24235 1.3492 0.684983 -4.73539 0.367423 -14.5685 -5.85768 -6.96046 18.8412 7.0352 -9.76442 -0.0 0.0 0.0 -0.0 0.0 0.0 1.01897e-14 -1.5181e-14 -1.24149e-12 88.579 13.8068 -7.33535 -14.8853 -7.46508 27.6296 -0.0587644 6.70721 0.947267 4.00296e-09 -7.00078e-09 -2.9378e-09 6.9042e-09 -1.21208e-08 -5.11358e-09 4.00295e-09 -7.00077e-09 -2.93781e-09 7.73091 5.47488 0.417314 4.00296e-09 -7.00077e-09 -2.9378e-09 2.90554 0.965183 0.102902 4.00296e-09 -7.00078e-09 -2.9378e-09 10.2786 0.731801 0.0259123 4.00295e-09 -7.00078e-09 -2.93779e-09 2.22167 -0.733487 -0.20892 1.01957e-14 -1.51829e-14 -1.24171e-12 -86.2713 18.7764 3.37748 13.9322 -6.70591 -25.644 0.133727 10.0807 -1.43258 4.28826e-09 -5.0168e-09 -1.65643e-09 7.39519e-09 -8.73741e-09 -2.90517e-09 4.28825e-09 -5.01681e-09 -1.65641e-09 -7.73091 5.47488 -0.417314 4.28826e-09 -5.0168e-09 -1.65642e-09 -2.90554 0.965183 -0.102902 4.28825e-09 -5.01681e-09 -1.65643e-09 -10.2786 0.731801 -0.0259123 4.28826e-09 -5.0168e-09 -1.65643e-09 -2.22167 -0.733487 0.20892 -2.03217e-16 0.0 -3.88251e-19 3.32186 -11.0854 -0.238951 -0.179997 29.4698 0.532168 -3.12948 -14.0324 -8.16444 2.03217e-16 0.0 3.88251e-19 1.64822 -10.2973 1.1345 0.116121 26.0555 -0.393243 0.93417 -11.9612 1.52467
